<?xml version="1.0" encoding="utf-8"?>
<!-- Generator: Adobe Illustrator 16.0.0, SVG Export Plug-In . SVG Version: 6.00 Build 0)  -->
<!DOCTYPE svg PUBLIC "-//W3C//DTD SVG 1.0//EN" "http://www.w3.org/TR/2001/REC-SVG-20010904/DTD/svg10.dtd">
<svg version="1.0" id="Layer_1" xmlns="http://www.w3.org/2000/svg" xmlns:xlink="http://www.w3.org/1999/xlink" x="0px" y="0px"
	 width="800px" height="800px" viewBox="0 0 800 800" enable-background="new 0 0 800 800" xml:space="preserve">
<g>
	<path fill="#878788" d="M388.985,227.92c10.201,0,20.101,0.932,29.548,2.657l22.495-23.433
		c-15.728-5.443-33.388-8.501-52.043-8.501c-31.729,0-60.535,8.848-81.89,23.246l19.594,18.575
		C344.809,232.52,366.141,227.92,388.985,227.92"/>
	<path fill="#FFFFFF" d="M388.985,198.643c18.656,0,36.316,3.059,52.043,8.501l24.449-25.458
		c-22.816-8.992-48.839-14.102-76.493-14.102c-41.219,0-78.838,11.343-107.539,30.005l25.648,24.298
		C328.45,207.49,357.256,198.643,388.985,198.643"/>
	<path fill="#878788" d="M271.574,298.242c2.056-8.396,5.858-16.376,11.096-23.74l-9.843-9.958
		c-1.97,6.126-3.046,12.508-3.046,19.061C269.781,288.601,270.415,293.485,271.574,298.242"/>
	<path fill="#878788" d="M198.794,353.323l-4.137,21.439l41.149-17.712c-2.597-5.466-3.104-12.582-4.61-18.378L198.794,353.323z"/>
	<polygon fill="#878788" points="169.838,120.176 110.283,446.279 138.45,448.58 197.414,117.722 	"/>
	<path fill="#FF0000" d="M370.093,307.834v-26.375l-43.251-40.996l-19.594-18.575L281.6,197.59l-84.276-79.871L138.328,448.58
		l124.825-54.878c-12.436-10.978-21.244-22.677-27.781-36.464l-40.635,17.428l4.078-21.327l26.328-137.224l2.204-11.521
		l21.734,21.898l27.961,28.167l12.015,12.106l49.377,42.522l-47.94,21.959c12.455,12.445,27.192,23.391,47.073,29.581l59.797-26.853
		L370.093,307.834z"/>
	<path fill="#878788" d="M506.389,298.242c1.161-4.757,1.806-9.642,1.806-14.637c0-14.728-5.396-28.628-14.654-40.706
		l-14.188,14.702C492.969,268.946,502.659,282.916,506.389,298.242"/>
	<path fill="#878788" d="M533.075,437.828L499.43,405.5c-5.369,3.676-11.132,7.082-17.152,10.211l50.798,48.768l156.64-163.146
		l-0.168-26.424L533.075,437.828z"/>
	<path fill="#878788" d="M418.933,328.244l-27.702-26.612l-21.213-20.239l-0.079,26.441l29.814,28.634l28.502,27.367
		c7.227-1.805,14.156-4.079,20.679-6.787L418.933,328.244z"/>
	<polygon fill="#878788" points="527.849,180.696 505.553,203.913 480.946,229.549 464.189,247.002 432.409,280.092 
		445.719,292.871 479.529,257.667 493.671,242.943 519.56,215.979 527.849,207.343 613.987,289.918 627.313,276.083 	"/>
	<path fill="#FFFFFF" d="M519.56,215.98l-25.892,26.964c9.259,12.076,14.523,25.929,14.523,40.66c0,4.997-0.645,9.882-1.803,14.637
		c-3.024,12.401-9.814,23.874-19.501,33.807c-9.93,10.175-22.884,18.728-37.95,25c-6.521,2.706-13.452,4.981-20.682,6.784
		c-12.297,3.048-25.51,4.734-39.27,4.734c-16.951,0-33.052-2.522-47.643-7.074c-19.881-6.19-36.925-16.126-49.384-28.575
		c-4.548-4.532-8.469-9.402-11.709-14.549c-3.99-6.335-6.947-13.075-8.676-20.127c-1.16-4.755-1.793-9.64-1.793-14.637
		c0-6.557,1.076-12.938,3.044-19.064l-29.755-30.11c-10.886,16.155-17.035,34.354-17.035,53.631c0,4.967,0.455,9.849,1.244,14.647
		c1.908,11.651,6.082,22.773,12.165,33.149c3.046,5.219,6.587,10.236,10.566,15.043c10.465,12.625,23.965,23.703,39.771,32.701
		c27.47,15.628,61.854,24.942,99.206,24.942c26.127,0,50.807-4.551,72.686-12.631c6.636-2.45,13.015-5.223,19.096-8.312
		c14.112-7.129,26.619-15.856,37.069-25.834c17.529-16.735,29.239-36.969,32.854-59.059c0.791-4.799,1.237-9.68,1.237-14.647
		C551.929,261.033,539.896,236.08,519.56,215.98"/>
	<path fill="#0C419A" d="M418.792,328.445l29.894,28.707c15.063-6.273,28.126-14.73,38.062-24.9l-40.987-39.36l-13.312-12.779
		l31.597-32.908l16.758-17.457l24.603-25.635l22.304-23.217l99.229,95.264l-13.323,13.873l-81.293,84.644
		c-8.558,11.736-19.664,22.144-32.787,31.126l33.394,32.227l156.649-163.138L526.429,118.253l-61.091,63.633l-24.454,25.458
		l-22.493,23.432l-48.373,50.618L418.792,328.445z"/>
	<path fill="#878788" d="M280.923,319.179c0,0,0.775,1.284,0.87,1.431c2.392,3.803,5.678,7.289,8.792,10.759l48.734-22.512
		L227.331,204.562l-3.062,16.13l87.873,86.987L280.923,319.179z"/>
	<path fill="#878788" d="M551.933,288.064c0,4.966-0.45,9.848-1.238,14.644c-3.618,22.09-15.328,42.328-32.86,59.063
		c-10.447,9.974-22.951,18.7-37.066,25.833c-6.085,3.085-12.46,5.861-19.093,8.312c-21.882,8.079-46.559,12.626-72.691,12.626
		c-37.347,0-71.736-9.314-99.203-24.94c-15.804-8.998-29.308-20.073-39.769-32.701c-3.98-4.804-7.522-9.821-10.568-15.039
		c-6.083-10.38-10.255-21.499-12.162-33.153c-0.792-4.796-1.25-9.677-1.25-14.644c0-1.559,0.112-3.102,0.193-4.637
		c-0.013-0.084-0.042-0.196-0.048-0.277c-0.791,4.802-0.146,29.241-0.146,34.201c0,7.858,1.053,15.532,3,22.976
		c1.507,5.799,3.59,11.445,6.185,16.911c6.538,13.789,16.361,26.435,28.794,37.414c29.903,26.379,74.781,43.176,124.972,43.176
		c34.837,0,67.072-8.105,93.564-21.863c6.015-3.133,11.738-6.541,17.114-10.217c13.127-8.983,24.25-19.536,32.807-31.272
		c12.412-16.985,19.464-36.446,19.464-57.124c0-4.362,0.373-25.031-0.048-33.237C551.817,282.986,551.933,286.639,551.933,288.064"
		/>
	<polygon points="67.675,490.154 197.355,490.154 185.146,540.092 122.99,540.092 116.843,566.328 181.682,566.328 170.394,612.596 
		106.396,612.596 91.029,678.33 24.038,678.33 	"/>
	<polygon points="214.985,490.154 281.976,490.154 238.339,678.33 171.348,678.33 	"/>
	<path d="M299.501,491.285l4.304-0.566c21.511-2.535,48.247-4.23,62.999-4.23c24.583,0,43.638,2.82,58.079,8.742
		c18.436,7.621,29.502,24.27,29.502,44.297c0,17.207-5.836,33.572-16.905,46.268c-9.527,11.002-18.129,16.363-35.955,21.723
		l-4.298,1.412c1.841,1.412,2.46,1.977,3.379,2.822c5.223,5.924,20.896,36.396,34.111,66.578h-73.756
		c-9.523-26.801-12.291-33.854-24.889-64.322L321.32,678.33h-65.146L299.501,491.285z M348.977,579.873
		c21.511,0,36.572-12.699,36.572-30.752c0-9.594-7.07-14.389-20.899-14.389c-3.995,0-6.145,0.283-10.448,1.129l-10.142,43.443
		C346.214,579.588,346.52,579.873,348.977,579.873"/>
	<polygon points="613.416,490.154 775.962,490.154 764.606,544.629 716.363,544.629 684.406,678.33 617.41,678.33 649.371,544.629 
		597.08,544.629 	"/>
	<path d="M715.757,644.711c9.029,0,16.362,7.268,16.362,16.297c0,9.098-7.269,16.361-16.362,16.361
		c-9.16,0-16.295-7.141-16.295-16.361C699.462,651.914,706.664,644.711,715.757,644.711 M715.757,675.348
		c7.958,0,14.34-6.381,14.34-14.275c0-7.957-6.382-14.338-14.34-14.338c-7.897,0-14.274,6.381-14.274,14.273
		C701.482,669.029,707.8,675.348,715.757,675.348 M709.439,652.668c0.823-0.061,0.948-0.121,2.591-0.248
		c1.641-0.129,2.335-0.191,3.032-0.191c5.369,0,8.021,2.086,8.021,6.064c0,2.398-1.009,3.852-3.158,4.676l-0.253,0.063
		c0.188,0.129,0.253,0.189,0.316,0.313c0.571,0.508,2.466,3.354,4.043,5.945h-6.126c-1.264-2.344-1.644-2.975-3.224-5.625v5.625
		h-5.242V652.668z M715.313,660.506c1.452,0,2.274-0.697,2.274-2.023c0-1.266-0.76-1.959-2.208-1.959c-0.317,0-0.383,0-0.698,0.063
		v3.854C714.934,660.506,715.063,660.506,715.313,660.506"/>
	<path d="M441.309,673.549c18.838,5.596,39.43,8.732,58.674,8.732c26.121,0,46.095-5.922,63.303-18.334
		c19.051-13.547,31.345-34.42,31.345-53.322c0-12.699-5.529-24.266-15.36-32.451c-7.686-6.201-15.675-11-31.964-18.615
		l-13.212-6.205c-4.305-2.26-6.455-4.516-6.455-7.055c0-6.771,8.608-11.848,20.283-11.848c8.735,0,19.147,2.539,39.044,9.045
		l13.733-50.939c-14.882-4.043-29.38-6.068-43.869-6.068c-54.698,0-96.799,29.902-96.799,68.555
		c0,20.311,13.522,34.699,47.324,50.502c15.979,7.332,18.748,9.311,18.748,14.387c0,7.615-8.299,12.416-21.821,12.416
		c-11.983,0-27.347-3.67-48.245-11.287l-0.025,0.008L441.309,673.549z"/>
</g>
</svg>
